# xmcd CD database file generated by OrangeCD 5.2
#
# Track frame offsets:
#	150
#	13763
#	29310
#	48910
#	63945
#	85888
#	99803
#	112808
#	129538
#	143050
#
# Disc length: 2137 seconds
#
# Revision: 5
# Processed by: cddbd v1.5.1PL0 Copyright (c) Steve Scherf et al.
# Submitted via: OrangeCD 5.2
#
DISCID=7408570a
DTITLE=Brooks and Dunn - Waitin' On Sundown
DYEAR=1994
DGENRE=Country
TTITLE0=Little Miss Honky Tonk
TTITLE1=She's Not The Cheatin' Kind
TTITLE2=Silver and Gold
TTITLE3=I'll Never Forgive My Heart
TTITLE4=You're Gonna Miss Me When I'm Gone
TTITLE5=My Kind Of Crazy
TTITLE6=Whiskey Under The Bridge
TTITLE7=If That's The Way You Want It
TTITLE8=She's The Kind Of Trouble
TTITLE9=A Few Good Rides Away
EXTD=
EXTT0=
EXTT1=
EXTT2=
EXTT3=
EXTT4=
EXTT5=
EXTT6=
EXTT7=
EXTT8=
EXTT9=
PLAYORDER=
